# xmcd
#
# Track frame offsets:
#	150
#	8676
#	20269
#	33901
#	43423
#	55336
#	67288
#	79495
#	92185
#	104101
#	116335
#	128036
#	138724
#	151677
#	162664
#	175153
#	187324
#	199484
#	213076
#	223690
#	234623
#	247031
#	257127
#	269069
#
# Disc length: 3758 seconds
#
# Revision: 1
# Processed by: cddbd v1.5.2PL0 Copyright (c) Steve Scherf et al.
# Submitted via: EasyCDDAExtractor 16.0.6.1
#
DISCID=780eac18
DTITLE=Homer and Jethro - Unhappy Day (RCA early tracks)
DYEAR=2003
DGENRE=Hillbilly Novelty
TTITLE0=Alabama Jubilee
TTITLE1=I'm Walking Behind You-All
TTITLE2=Baby It's Cold Outside
TTITLE3=Little Ole Kiss Of Fire
TTITLE4=Mexican Joe
TTITLE5=Pore Ol' Koo Liger
TTITLE6=Slow Poke No. 2
TTITLE7=Sound Off No. 2 (Duckworth Chant)
TTITLE8=Tennessee Border No. 2
TTITLE9=Too Young
TTITLE10=Unhappy Day
TTITLE11=When It's Tooth Pickin' Time In False Teeth Valley
TTITLE12=You Tell Her, I Stutter
TTITLE13=Put That Knife Away Nellie
TTITLE14=I'm Moving On No. 2
TTITLE15=Gambler's Git Box
TTITLE16=I'm Gettin' Older Every Day
TTITLE17=Pizen Pete
TTITLE18=Settin' The Woods On Fire No. 2
TTITLE19=A Screwball's Love Song
TTITLE20=Does Your Spearmint Lose It's Flavor (On The Bedpost Overnight)
TTITLE21=Oh Babe
TTITLE22=So Long It's Been Good To Know You No. 2
TTITLE23=Disc Jockey's Nightmare
EXTD=
EXTT0=
EXTT1=
EXTT2=
EXTT3=
EXTT4=
EXTT5=
EXTT6=
EXTT7=
EXTT8=
EXTT9=
EXTT10=
EXTT11=
EXTT12=
EXTT13=
EXTT14=
EXTT15=
EXTT16=
EXTT17=
EXTT18=
EXTT19=
EXTT20=
EXTT21=
EXTT22=
EXTT23=
PLAYORDER=
